<?xml version="1.0" standalone="no"?>
<!DOCTYPE svg PUBLIC "-//W3C//DTD SVG 20010904//EN"
 "http://www.w3.org/TR/2001/REC-SVG-20010904/DTD/svg10.dtd">
<svg version="1.0" xmlns="http://www.w3.org/2000/svg"
 width="512.000000pt" height="512.000000pt" viewBox="0 0 512.000000 512.000000"
 preserveAspectRatio="xMidYMid meet">
<metadata>
Created by potrace 1.14, written by Peter Selinger 2001-2017
</metadata>
<g transform="translate(0.000000,512.000000) scale(0.100000,-0.100000)"
fill="#000000" stroke="none">
<path d="M1976 4552 c-3 -2 -23 -6 -43 -8 -43 -3 -88 -10 -88 -14 0 -2 -34 -8
-62 -12 -7 -1 -13 -5 -13 -10 0 -4 -3 -7 -7 -6 -13 4 -152 -43 -159 -53 -3 -5
-10 -6 -16 -3 -6 4 -13 2 -17 -4 -3 -6 -19 -13 -35 -16 -16 -3 -32 -9 -35 -13
-3 -4 -15 -9 -26 -11 -11 -2 -27 -6 -35 -9 -8 -4 -17 -7 -20 -8 -3 -1 -14 -5
-25 -9 -64 -25 -232 -74 -255 -75 -8 0 -52 -7 -97 -15 -51 -9 -172 -16 -310
-19 -212 -3 -232 -5 -280 -26 -29 -13 -68 -41 -87 -62 -37 -40 -82 -119 -69
-119 4 0 -16 -16 -45 -36 -65 -43 -117 -95 -157 -154 -16 -25 -30 -47 -30 -50
0 -3 -6 -14 -12 -25 -5 -11 -19 -45 -29 -75 -18 -53 -19 -105 -19 -1225 0
-982 2 -1178 14 -1220 15 -50 69 -162 93 -190 43 -51 96 -105 103 -105 4 0 16
-10 26 -22 11 -11 19 -18 19 -14 0 3 17 -5 38 -19 33 -21 70 -35 166 -63 12
-3 404 -7 871 -8 468 -2 852 -3 855 -4 3 0 19 -13 37 -30 30 -29 123 -77 167
-86 11 -3 26 -6 31 -7 6 -2 15 -5 20 -8 6 -3 38 -6 72 -5 36 1 63 -3 63 -9 0
-7 3 -7 8 0 4 6 25 11 47 13 22 2 50 4 63 4 12 1 22 5 22 8 0 4 6 7 13 7 24 0
126 53 161 84 l35 30 848 3 c466 2 862 6 878 9 41 8 137 42 165 58 24 14 34
21 65 47 8 7 15 11 15 8 0 -3 22 16 49 42 26 26 47 49 45 51 -1 2 6 13 17 25
17 17 80 130 78 139 0 1 2 9 5 17 23 71 25 186 23 1265 l-2 1150 -27 73 c-45
124 -125 226 -231 295 -23 15 -48 53 -51 79 -1 3 -14 23 -31 44 -16 20 -32 40
-35 44 -3 3 -32 20 -65 36 -59 28 -61 29 -265 31 -231 3 -277 6 -400 28 -63
11 -223 55 -260 72 -8 3 -17 7 -20 8 -28 7 -147 49 -155 55 -5 4 -46 20 -90
34 -44 15 -89 31 -100 36 -11 6 -29 11 -40 13 -11 1 -25 6 -30 9 -33 21 -325
35 -325 16 0 -6 -7 -7 -16 -4 -9 3 -21 3 -27 -1 -7 -4 -18 -8 -27 -9 -8 -2
-24 -4 -35 -6 -11 -2 -22 -5 -25 -8 -3 -3 -31 -18 -64 -35 -81 -41 -160 -121
-196 -197 -17 -35 -30 -71 -30 -80 0 -37 -17 -24 -29 22 -24 94 -105 192 -206
250 -77 44 -156 67 -265 76 -30 3 -63 7 -72 8 -9 2 -19 1 -22 -2z"/>
</g>
</svg>
